<svg xmlns="http://www.w3.org/2000/svg" viewBox="0 0 64 64"><path d="M16.00,6.00 L16.27,6.31 L16.53,6.62 L16.80,6.93 L17.07,7.22 L17.33,7.50 L17.60,7.76 L17.87,8.01 L18.13,8.23 L18.40,8.43 L18.67,8.60 L18.93,8.74 L19.20,8.85 L19.47,8.93 L19.73,8.98 L20.00,9.00 L20.27,8.98 L20.53,8.93 L20.80,8.85 L21.07,8.74 L21.33,8.60 L21.60,8.43 L21.87,8.23 L22.13,8.01 L22.40,7.76 L22.67,7.50 L22.93,7.22 L23.20,6.93 L23.47,6.62 L23.73,6.31 L24.00,6.00 L24.27,5.69 L24.53,5.38 L24.80,5.07 L25.07,4.78 L25.33,4.50 L25.60,4.24 L25.87,3.99 L26.13,3.77 L26.40,3.57 L26.67,3.40 L26.93,3.26 L27.20,3.15 L27.47,3.07 L27.73,3.02 L28.00,3.00 L28.27,3.02 L28.53,3.07 L28.80,3.15 L29.07,3.26 L29.33,3.40 L29.60,3.57 L29.87,3.77 L30.13,3.99 L30.40,4.24 L30.67,4.50 L30.93,4.78 L31.20,5.07 L31.47,5.38 L31.73,5.69 L32.00,6.00 L32.27,6.31 L32.53,6.62 L32.80,6.93 L33.07,7.22 L33.33,7.50 L33.60,7.76 L33.87,8.01 L34.13,8.23 L34.40,8.43 L34.67,8.60 L34.93,8.74 L35.20,8.85 L35.47,8.93 L35.73,8.98 L36.00,9.00 L36.27,8.98 L36.53,8.93 L36.80,8.85 L37.07,8.74 L37.33,8.60 L37.60,8.43 L37.87,8.23 L38.13,8.01 L38.40,7.76 L38.67,7.50 L38.93,7.22 L39.20,6.93 L39.47,6.62 L39.73,6.31 L40.00,6.00 L40.27,5.69 L40.53,5.38 L40.80,5.07 L41.07,4.78 L41.33,4.50 L41.60,4.24 L41.87,3.99 L42.13,3.77 L42.40,3.57 L42.67,3.40 L42.93,3.26 L43.20,3.15 L43.47,3.07 L43.73,3.02 L44.00,3.00 L44.27,3.02 L44.53,3.07 L44.80,3.15 L45.07,3.26 L45.33,3.40 L45.60,3.57 L45.87,3.77 L46.13,3.99 L46.40,4.24 L46.67,4.50 L46.93,4.78 L47.20,5.07 L47.47,5.38 L47.73,5.69 L48.00,6.00" fill="none" stroke="#7B3FBF" stroke-width="2.5" stroke-linecap="round"/><path d="M16.00,58.00 L16.27,57.69 L16.53,57.38 L16.80,57.07 L17.07,56.78 L17.33,56.50 L17.60,56.24 L17.87,55.99 L18.13,55.77 L18.40,55.57 L18.67,55.40 L18.93,55.26 L19.20,55.15 L19.47,55.07 L19.73,55.02 L20.00,55.00 L20.27,55.02 L20.53,55.07 L20.80,55.15 L21.07,55.26 L21.33,55.40 L21.60,55.57 L21.87,55.77 L22.13,55.99 L22.40,56.24 L22.67,56.50 L22.93,56.78 L23.20,57.07 L23.47,57.38 L23.73,57.69 L24.00,58.00 L24.27,58.31 L24.53,58.62 L24.80,58.93 L25.07,59.22 L25.33,59.50 L25.60,59.76 L25.87,60.01 L26.13,60.23 L26.40,60.43 L26.67,60.60 L26.93,60.74 L27.20,60.85 L27.47,60.93 L27.73,60.98 L28.00,61.00 L28.27,60.98 L28.53,60.93 L28.80,60.85 L29.07,60.74 L29.33,60.60 L29.60,60.43 L29.87,60.23 L30.13,60.01 L30.40,59.76 L30.67,59.50 L30.93,59.22 L31.20,58.93 L31.47,58.62 L31.73,58.31 L32.00,58.00 L32.27,57.69 L32.53,57.38 L32.80,57.07 L33.07,56.78 L33.33,56.50 L33.60,56.24 L33.87,55.99 L34.13,55.77 L34.40,55.57 L34.67,55.40 L34.93,55.26 L35.20,55.15 L35.47,55.07 L35.73,55.02 L36.00,55.00 L36.27,55.02 L36.53,55.07 L36.80,55.15 L37.07,55.26 L37.33,55.40 L37.60,55.57 L37.87,55.77 L38.13,55.99 L38.40,56.24 L38.67,56.50 L38.93,56.78 L39.20,57.07 L39.47,57.38 L39.73,57.69 L40.00,58.00 L40.27,58.31 L40.53,58.62 L40.80,58.93 L41.07,59.22 L41.33,59.50 L41.60,59.76 L41.87,60.01 L42.13,60.23 L42.40,60.43 L42.67,60.60 L42.93,60.74 L43.20,60.85 L43.47,60.93 L43.73,60.98 L44.00,61.00 L44.27,60.98 L44.53,60.93 L44.80,60.85 L45.07,60.74 L45.33,60.60 L45.60,60.43 L45.87,60.23 L46.13,60.01 L46.40,59.76 L46.67,59.50 L46.93,59.22 L47.20,58.93 L47.47,58.62 L47.73,58.31 L48.00,58.00" fill="none" stroke="#7B3FBF" stroke-width="2.5" stroke-linecap="round"/><path d="M6.00,16.00 L6.31,16.27 L6.62,16.53 L6.93,16.80 L7.22,17.07 L7.50,17.33 L7.76,17.60 L8.01,17.87 L8.23,18.13 L8.43,18.40 L8.60,18.67 L8.74,18.93 L8.85,19.20 L8.93,19.47 L8.98,19.73 L9.00,20.00 L8.98,20.27 L8.93,20.53 L8.85,20.80 L8.74,21.07 L8.60,21.33 L8.43,21.60 L8.23,21.87 L8.01,22.13 L7.76,22.40 L7.50,22.67 L7.22,22.93 L6.93,23.20 L6.62,23.47 L6.31,23.73 L6.00,24.00 L5.69,24.27 L5.38,24.53 L5.07,24.80 L4.78,25.07 L4.50,25.33 L4.24,25.60 L3.99,25.87 L3.77,26.13 L3.57,26.40 L3.40,26.67 L3.26,26.93 L3.15,27.20 L3.07,27.47 L3.02,27.73 L3.00,28.00 L3.02,28.27 L3.07,28.53 L3.15,28.80 L3.26,29.07 L3.40,29.33 L3.57,29.60 L3.77,29.87 L3.99,30.13 L4.24,30.40 L4.50,30.67 L4.78,30.93 L5.07,31.20 L5.38,31.47 L5.69,31.73 L6.00,32.00 L6.31,32.27 L6.62,32.53 L6.93,32.80 L7.22,33.07 L7.50,33.33 L7.76,33.60 L8.01,33.87 L8.23,34.13 L8.43,34.40 L8.60,34.67 L8.74,34.93 L8.85,35.20 L8.93,35.47 L8.98,35.73 L9.00,36.00 L8.98,36.27 L8.93,36.53 L8.85,36.80 L8.74,37.07 L8.60,37.33 L8.43,37.60 L8.23,37.87 L8.01,38.13 L7.76,38.40 L7.50,38.67 L7.22,38.93 L6.93,39.20 L6.62,39.47 L6.31,39.73 L6.00,40.00 L5.69,40.27 L5.38,40.53 L5.07,40.80 L4.78,41.07 L4.50,41.33 L4.24,41.60 L3.99,41.87 L3.77,42.13 L3.57,42.40 L3.40,42.67 L3.26,42.93 L3.15,43.20 L3.07,43.47 L3.02,43.73 L3.00,44.00 L3.02,44.27 L3.07,44.53 L3.15,44.80 L3.26,45.07 L3.40,45.33 L3.57,45.60 L3.77,45.87 L3.99,46.13 L4.24,46.40 L4.50,46.67 L4.78,46.93 L5.07,47.20 L5.38,47.47 L5.69,47.73 L6.00,48.00" fill="none" stroke="#7B3FBF" stroke-width="2.5" stroke-linecap="round"/><path d="M58.00,16.00 L57.69,16.27 L57.38,16.53 L57.07,16.80 L56.78,17.07 L56.50,17.33 L56.24,17.60 L55.99,17.87 L55.77,18.13 L55.57,18.40 L55.40,18.67 L55.26,18.93 L55.15,19.20 L55.07,19.47 L55.02,19.73 L55.00,20.00 L55.02,20.27 L55.07,20.53 L55.15,20.80 L55.26,21.07 L55.40,21.33 L55.57,21.60 L55.77,21.87 L55.99,22.13 L56.24,22.40 L56.50,22.67 L56.78,22.93 L57.07,23.20 L57.38,23.47 L57.69,23.73 L58.00,24.00 L58.31,24.27 L58.62,24.53 L58.93,24.80 L59.22,25.07 L59.50,25.33 L59.76,25.60 L60.01,25.87 L60.23,26.13 L60.43,26.40 L60.60,26.67 L60.74,26.93 L60.85,27.20 L60.93,27.47 L60.98,27.73 L61.00,28.00 L60.98,28.27 L60.93,28.53 L60.85,28.80 L60.74,29.07 L60.60,29.33 L60.43,29.60 L60.23,29.87 L60.01,30.13 L59.76,30.40 L59.50,30.67 L59.22,30.93 L58.93,31.20 L58.62,31.47 L58.31,31.73 L58.00,32.00 L57.69,32.27 L57.38,32.53 L57.07,32.80 L56.78,33.07 L56.50,33.33 L56.24,33.60 L55.99,33.87 L55.77,34.13 L55.57,34.40 L55.40,34.67 L55.26,34.93 L55.15,35.20 L55.07,35.47 L55.02,35.73 L55.00,36.00 L55.02,36.27 L55.07,36.53 L55.15,36.80 L55.26,37.07 L55.40,37.33 L55.57,37.60 L55.77,37.87 L55.99,38.13 L56.24,38.40 L56.50,38.67 L56.78,38.93 L57.07,39.20 L57.38,39.47 L57.69,39.73 L58.00,40.00 L58.31,40.27 L58.62,40.53 L58.93,40.80 L59.22,41.07 L59.50,41.33 L59.76,41.60 L60.01,41.87 L60.23,42.13 L60.43,42.40 L60.60,42.67 L60.74,42.93 L60.85,43.20 L60.93,43.47 L60.98,43.73 L61.00,44.00 L60.98,44.27 L60.93,44.53 L60.85,44.80 L60.74,45.07 L60.60,45.33 L60.43,45.60 L60.23,45.87 L60.01,46.13 L59.76,46.40 L59.50,46.67 L59.22,46.93 L58.93,47.20 L58.62,47.47 L58.31,47.73 L58.00,48.00" fill="none" stroke="#7B3FBF" stroke-width="2.5" stroke-linecap="round"/><path d="M16,6 Q6,6 6,16" fill="none" stroke="#7B3FBF" stroke-width="2.5" stroke-linecap="round"/><path d="M48,6 Q58,6 58,16" fill="none" stroke="#7B3FBF" stroke-width="2.5" stroke-linecap="round"/><path d="M58,48 Q58,58 48,58" fill="none" stroke="#7B3FBF" stroke-width="2.5" stroke-linecap="round"/><path d="M16,58 Q6,58 6,48" fill="none" stroke="#7B3FBF" stroke-width="2.5" stroke-linecap="round"/></svg>